<svg width="120" height="39" viewBox="0 0 120 39" fill="none" xmlns="http://www.w3.org/2000/svg">
<g id="DROP LOGO 2">
<path id="Subtract" fill-rule="evenodd" clip-rule="evenodd" d="M14 0C6.26801 0 0 6.26801 0 14V24.9637C0 32.6957 6.26801 38.9637 14 38.9637H24.9637C32.6957 38.9637 38.9637 32.6957 38.9637 24.9637V14C38.9637 6.26801 32.6957 0 24.9637 0H14ZM20.1727 4.0374C21.8374 5.70434 27.5716 11.446 28.7739 12.6473C29.3949 13.2717 32.6425 16.648 32.6425 22.0033C32.6425 25.3902 31.353 28.7743 28.7739 31.3594C26.1949 33.9418 22.8125 35.2331 19.4301 35.2331C16.0477 35.2331 12.6653 33.9418 10.0863 31.3594C4.92814 26.1919 4.92814 17.8148 10.0863 12.6473C11.2939 11.5466 12.5147 10.3877 13.7488 9.17053C15.5087 7.43479 17.1523 5.71757 18.6876 4.0374C18.8699 3.88393 19.1236 3.73047 19.4301 3.73047C19.6996 3.73047 19.9692 3.83101 20.1727 4.0374ZM15.1572 24.6493C16.0583 24.6493 16.7876 23.919 16.7876 23.0167V18.344C16.7876 17.4417 16.0583 16.7115 15.1572 16.7115H14.9828C14.0817 16.7115 13.3524 17.4417 13.3524 18.344V23.0167C13.3524 23.919 14.0817 24.6493 14.9828 24.6493H15.1572ZM23.8774 24.6493C24.7785 24.6493 25.5078 23.919 25.5078 23.0167V18.344C25.5078 17.4417 24.7785 16.7115 23.8774 16.7115H23.703C22.8019 16.7115 22.0726 17.4417 22.0726 18.344V23.0167C22.0726 23.919 22.8019 24.6493 23.703 24.6493H23.8774Z" fill="white" fill-opacity="0.9"/>
<path id="STREAM BRIDGE" d="M50.3462 17.5237C49.0833 17.5237 48.0309 17.3497 47.189 17.0016C46.3592 16.6414 45.7338 16.1793 45.3128 15.6151C44.904 15.0389 44.6875 14.4327 44.6633 13.7965C44.6633 13.6885 44.6994 13.5985 44.7716 13.5264C44.8437 13.4544 44.9339 13.4184 45.0422 13.4184H47.9107C48.0791 13.4184 48.2113 13.4484 48.3076 13.5084C48.4039 13.5564 48.506 13.6285 48.6143 13.7245C48.7225 13.8566 48.8488 13.9826 48.9931 14.1026C49.1375 14.2107 49.324 14.3007 49.5524 14.3727C49.7808 14.4327 50.0456 14.4627 50.3462 14.4627C50.8994 14.4627 51.3265 14.3907 51.6271 14.2467C51.9277 14.0906 52.0781 13.8805 52.0781 13.6165C52.0781 13.4124 51.994 13.2444 51.8255 13.1123C51.6693 12.9803 51.3987 12.8602 51.0137 12.7522C50.6288 12.6442 50.1056 12.5301 49.4442 12.4101C48.518 12.254 47.7183 12.026 47.0447 11.7259C46.3711 11.4138 45.854 10.9996 45.4932 10.4835C45.1443 9.95529 44.97 9.30708 44.97 8.53885C44.97 7.75859 45.1865 7.06838 45.6195 6.46818C46.0644 5.86798 46.6778 5.39983 47.4597 5.06373C48.2535 4.72763 49.1735 4.55957 50.2199 4.55957C51.0859 4.55957 51.8497 4.67361 52.5111 4.90168C53.1847 5.12975 53.7498 5.42986 54.2069 5.80197C54.6641 6.16208 55.0127 6.5522 55.2533 6.97234C55.4939 7.39249 55.6202 7.7946 55.6322 8.17873C55.6322 8.28676 55.59 8.3828 55.5059 8.46682C55.4337 8.53885 55.3496 8.57486 55.2533 8.57486H52.2405C52.0962 8.57486 51.976 8.55084 51.8797 8.50283C51.7834 8.45483 51.6873 8.37679 51.591 8.26876C51.5308 8.1007 51.3806 7.95066 51.14 7.81861C50.8994 7.68656 50.5927 7.62055 50.2199 7.62055C49.8111 7.62055 49.4983 7.69257 49.2818 7.83662C49.0653 7.96867 48.9571 8.16673 48.9571 8.43081C48.9571 8.61087 49.0231 8.76691 49.1555 8.89896C49.2879 9.03101 49.5224 9.15104 49.8591 9.25908C50.1958 9.35511 50.6648 9.46315 51.2663 9.58318C52.4089 9.75124 53.329 9.9913 54.0265 10.3034C54.7362 10.6155 55.2533 11.0236 55.578 11.5278C55.9028 12.032 56.0651 12.6622 56.0651 13.4184C56.0651 14.2707 55.8187 15.0029 55.3255 15.6151C54.8323 16.2273 54.1528 16.7015 53.2869 17.0376C52.4328 17.3617 51.4528 17.5237 50.3462 17.5237ZM60.7531 17.3437C60.6207 17.3437 60.5066 17.3016 60.4103 17.2176C60.3262 17.1216 60.284 17.0076 60.284 16.8755V8.0887H57.181C57.0486 8.0887 56.9345 8.04668 56.8382 7.96266C56.7541 7.86662 56.7119 7.7526 56.7119 7.62055V5.20778C56.7119 5.07573 56.7541 4.96769 56.8382 4.88367C56.9345 4.78764 57.0486 4.73963 57.181 4.73963H67.3199C67.4523 4.73963 67.5606 4.78764 67.6447 4.88367C67.741 4.96769 67.789 5.07573 67.789 5.20778V7.62055C67.789 7.7526 67.741 7.86662 67.6447 7.96266C67.5606 8.04668 67.4523 8.0887 67.3199 8.0887H64.2169V16.8755C64.2169 17.0076 64.1689 17.1216 64.0726 17.2176C63.9885 17.3016 63.8802 17.3437 63.7478 17.3437H60.7531ZM69.7257 17.3437C69.6053 17.3437 69.497 17.3016 69.4009 17.2176C69.3047 17.1216 69.2566 17.0076 69.2566 16.8755V5.20778C69.2566 5.07573 69.3047 4.96769 69.4009 4.88367C69.497 4.78764 69.6053 4.73963 69.7257 4.73963H74.8673C76.5029 4.73963 77.7839 5.11174 78.71 5.85599C79.6481 6.60023 80.1172 7.63856 80.1172 8.97098C80.1172 9.81124 79.9246 10.5255 79.5399 11.1137C79.155 11.7019 78.6498 12.164 78.0245 12.5001L80.3698 16.7495C80.4059 16.8215 80.4239 16.8875 80.4239 16.9475C80.4239 17.0556 80.3878 17.1516 80.3157 17.2356C80.2435 17.3077 80.1533 17.3437 80.045 17.3437H76.9961C76.7675 17.3437 76.5932 17.2896 76.473 17.1816C76.3525 17.0616 76.2745 16.9535 76.2384 16.8575L74.4343 13.1483H73.1354V16.8755C73.1354 17.0076 73.0871 17.1216 72.9911 17.2176C72.9067 17.3016 72.7985 17.3437 72.6663 17.3437H69.7257ZM73.1354 10.1774H74.8493C75.2701 10.1774 75.5829 10.0633 75.7874 9.83526C75.9917 9.59518 76.0941 9.3011 76.0941 8.95298C76.0941 8.59286 75.9917 8.28676 75.7874 8.03468C75.5948 7.7826 75.2823 7.65656 74.8493 7.65656H73.1354V10.1774ZM82.481 17.3437C82.3608 17.3437 82.2526 17.3016 82.1563 17.2176C82.06 17.1216 82.0119 17.0076 82.0119 16.8755V5.20778C82.0119 5.07573 82.06 4.96769 82.1563 4.88367C82.2526 4.78764 82.3608 4.73963 82.481 4.73963H91.321C91.4534 4.73963 91.5675 4.78764 91.6638 4.88367C91.7601 4.96769 91.8081 5.07573 91.8081 5.20778V7.33246C91.8081 7.45249 91.7601 7.56052 91.6638 7.65656C91.5675 7.7526 91.4534 7.80061 91.321 7.80061H85.7464V9.58318H90.9241C91.0565 9.58318 91.1706 9.63119 91.2669 9.72723C91.3632 9.81124 91.4112 9.91928 91.4112 10.0513V11.996C91.4112 12.128 91.3632 12.242 91.2669 12.3381C91.1706 12.4221 91.0565 12.4641 90.9241 12.4641H85.7464V14.2827H91.4654C91.5977 14.2827 91.7118 14.3307 91.8081 14.4267C91.9044 14.5228 91.9525 14.6368 91.9525 14.7688V16.8755C91.9525 17.0076 91.9044 17.1216 91.8081 17.2176C91.7118 17.3016 91.5977 17.3437 91.4654 17.3437H82.481ZM93.149 17.3437C93.0408 17.3437 92.9506 17.3077 92.8784 17.2356C92.8062 17.1516 92.7702 17.0556 92.7702 16.9475C92.7702 16.8995 92.776 16.8575 92.7882 16.8215L96.9015 5.29781C96.9495 5.16576 97.0337 5.03972 97.1541 4.91969C97.2743 4.79965 97.4427 4.73963 97.6592 4.73963H100.961C101.189 4.73963 101.363 4.79965 101.484 4.91969C101.604 5.03972 101.682 5.16576 101.718 5.29781L105.85 16.8215C105.862 16.8575 105.868 16.8995 105.868 16.9475C105.868 17.0556 105.826 17.1516 105.742 17.2356C105.669 17.3077 105.579 17.3437 105.471 17.3437H102.693C102.488 17.3437 102.338 17.2957 102.242 17.1996C102.145 17.1036 102.079 17.0136 102.043 16.9295L101.484 15.417H97.136L96.5768 16.9295C96.5407 17.0136 96.4744 17.1036 96.3783 17.1996C96.294 17.2957 96.1438 17.3437 95.9273 17.3437H93.149ZM97.9659 12.3741H100.654L99.3009 8.32278L97.9659 12.3741ZM107.552 17.3437C107.42 17.3437 107.305 17.3016 107.209 17.2176C107.113 17.1216 107.065 17.0076 107.065 16.8755V5.20778C107.065 5.07573 107.113 4.96769 107.209 4.88367C107.305 4.78764 107.42 4.73963 107.552 4.73963H109.951C110.168 4.73963 110.33 4.79965 110.438 4.91969C110.547 5.03972 110.619 5.12376 110.655 5.17177L113.541 10.1774L116.428 5.17177C116.464 5.12376 116.536 5.03972 116.645 4.91969C116.753 4.79965 116.915 4.73963 117.132 4.73963H119.531C119.663 4.73963 119.772 4.78764 119.856 4.88367C119.952 4.96769 120 5.07573 120 5.20778V16.8755C120 17.0076 119.952 17.1216 119.856 17.2176C119.772 17.3016 119.663 17.3437 119.531 17.3437H116.825C116.693 17.3437 116.578 17.3016 116.482 17.2176C116.398 17.1216 116.356 17.0076 116.356 16.8755V11.0416L114.732 13.8866C114.672 13.9826 114.594 14.0786 114.498 14.1747C114.401 14.2707 114.263 14.3187 114.083 14.3187H112.982C112.814 14.3187 112.682 14.2707 112.585 14.1747C112.489 14.0786 112.411 13.9826 112.351 13.8866L110.727 11.0416V16.8755C110.727 17.0076 110.679 17.1216 110.583 17.2176C110.499 17.3016 110.39 17.3437 110.258 17.3437H107.552ZM45.8179 34.2241C45.6977 34.2241 45.5895 34.182 45.4932 34.098C45.3969 34.0019 45.3489 33.888 45.3489 33.7559V22.0882C45.3489 21.9561 45.3969 21.8481 45.4932 21.7641C45.5895 21.668 45.6977 21.62 45.8179 21.62H51.573C52.6674 21.62 53.5636 21.7641 54.2611 22.0522C54.9586 22.3403 55.4759 22.7544 55.8126 23.2946C56.1493 23.8347 56.3177 24.501 56.3177 25.2932C56.3177 25.7013 56.2336 26.0675 56.0651 26.3916C55.9089 26.7037 55.7163 26.9678 55.4878 27.1838C55.2594 27.388 55.0429 27.5379 54.8384 27.634C55.3074 27.8381 55.7163 28.1861 56.0651 28.6783C56.414 29.1584 56.5883 29.7107 56.5883 30.3348C56.5883 31.175 56.396 31.8833 56.011 32.4595C55.6383 33.0357 55.0909 33.4739 54.3693 33.7739C53.6596 34.074 52.7878 34.2241 51.7534 34.2241H45.8179ZM49.2277 31.5052H51.3384C51.7473 31.5052 52.0481 31.3852 52.2405 31.1451C52.4328 30.893 52.5291 30.6168 52.5291 30.3168C52.5291 30.0046 52.427 29.7346 52.2224 29.5066C52.0179 29.2664 51.7234 29.1464 51.3384 29.1464H49.2277V31.5052ZM49.2277 26.4996H51.158C51.543 26.4996 51.8255 26.3916 52.006 26.1755C52.1864 25.9594 52.2766 25.7073 52.2766 25.4193C52.2766 25.1312 52.1864 24.8791 52.006 24.663C51.8255 24.4469 51.543 24.3389 51.158 24.3389H49.2277V26.4996ZM58.7848 34.2241C58.6646 34.2241 58.5564 34.182 58.4601 34.098C58.3638 34.0019 58.3157 33.888 58.3157 33.7559V22.0882C58.3157 21.9561 58.3638 21.8481 58.4601 21.7641C58.5564 21.668 58.6646 21.62 58.7848 21.62H63.9264C65.5621 21.62 66.843 21.9921 67.7691 22.7364C68.7073 23.4807 69.1763 24.519 69.1763 25.8514C69.1763 26.6916 68.984 27.406 68.599 27.9941C68.2141 28.5822 67.7089 29.0445 67.0836 29.3805L69.4289 33.6299C69.465 33.7019 69.483 33.7679 69.483 33.8279C69.483 33.936 69.4469 34.0321 69.3748 34.116C69.3026 34.1881 69.2124 34.2241 69.1042 34.2241H66.0553C65.8268 34.2241 65.6523 34.1701 65.5321 34.062C65.4119 33.9421 65.3336 33.834 65.2976 33.7379L63.4935 30.0287H62.1945V33.7559C62.1945 33.888 62.1465 34.0019 62.0502 34.098C61.9661 34.182 61.8578 34.2241 61.7255 34.2241H58.7848ZM62.1945 27.0578H63.9084C64.3294 27.0578 64.642 26.9437 64.8465 26.7157C65.0511 26.4755 65.1532 26.1816 65.1532 25.8334C65.1532 25.4733 65.0511 25.1672 64.8465 24.9151C64.6542 24.663 64.3414 24.537 63.9084 24.537H62.1945V27.0578ZM71.5404 34.2241C71.4199 34.2241 71.3117 34.182 71.2156 34.098C71.1193 34.0019 71.0713 33.888 71.0713 33.7559V22.0882C71.0713 21.9561 71.1193 21.8481 71.2156 21.7641C71.3117 21.668 71.4199 21.62 71.5404 21.62H74.6073C74.7395 21.62 74.8477 21.668 74.932 21.7641C75.0281 21.8481 75.0764 21.9561 75.0764 22.0882V33.7559C75.0764 33.888 75.0281 34.0019 74.932 34.098C74.8477 34.182 74.7395 34.2241 74.6073 34.2241H71.5404ZM77.7771 34.2241C77.6567 34.2241 77.5484 34.182 77.4524 34.098C77.3561 34.0019 77.308 33.888 77.308 33.7559V22.0882C77.308 21.9561 77.3561 21.8481 77.4524 21.7641C77.5484 21.668 77.6567 21.62 77.7771 21.62H82.7203C83.8868 21.62 84.8971 21.8121 85.7511 22.1962C86.6049 22.5683 87.2785 23.1205 87.7717 23.8528C88.2647 24.5849 88.5294 25.4852 88.5655 26.5536C88.5894 27.0697 88.6016 27.5259 88.6016 27.9221C88.6016 28.3182 88.5894 28.7683 88.5655 29.2725C88.5173 30.4008 88.2588 31.3312 87.7898 32.0634C87.3326 32.7955 86.6832 33.3418 85.8413 33.7019C84.9993 34.0501 83.989 34.2241 82.8105 34.2241H77.7771ZM81.1868 31.1631H82.7203C83.1172 31.1631 83.4539 31.0971 83.7306 30.965C84.007 30.8329 84.2235 30.629 84.38 30.3528C84.5363 30.0647 84.6204 29.6985 84.6326 29.2545C84.6446 28.9063 84.6507 28.5943 84.6507 28.3182C84.6626 28.042 84.6626 27.7661 84.6507 27.4899C84.6507 27.2138 84.6446 26.9077 84.6326 26.5716C84.6085 25.9115 84.4161 25.4312 84.0553 25.1312C83.7064 24.8311 83.2313 24.681 82.6301 24.681H81.1868V31.1631ZM95.9359 34.4041C94.7452 34.4041 93.7229 34.2241 92.8689 33.864C92.0149 33.4919 91.3474 32.9396 90.8664 32.2074C90.3854 31.4753 90.1267 30.5689 90.0906 29.4886C90.0787 28.9844 90.0726 28.4442 90.0726 27.868C90.0726 27.2799 90.0787 26.7276 90.0906 26.2115C90.1267 25.1672 90.3854 24.291 90.8664 23.5827C91.3596 22.8744 92.0391 22.3403 92.905 21.9802C93.771 21.62 94.7813 21.44 95.9359 21.44C96.8621 21.44 97.6858 21.548 98.4075 21.7641C99.1291 21.9802 99.7425 22.2743 100.248 22.6464C100.765 23.0185 101.156 23.4386 101.42 23.9068C101.697 24.363 101.841 24.837 101.853 25.3292C101.853 25.4373 101.811 25.5273 101.727 25.5993C101.655 25.6713 101.565 25.7073 101.456 25.7073H98.1369C98.0167 25.7073 97.9204 25.6893 97.8482 25.6533C97.776 25.6173 97.71 25.5633 97.6498 25.4913C97.5895 25.3713 97.4935 25.2331 97.3611 25.0771C97.2409 24.9212 97.0664 24.789 96.8379 24.681C96.6095 24.5611 96.3087 24.501 95.9359 24.501C95.3705 24.501 94.9317 24.645 94.6189 24.9331C94.3061 25.2212 94.1379 25.6774 94.1138 26.3015C94.0777 27.3099 94.0777 28.3423 94.1138 29.3985C94.1379 30.0827 94.3122 30.5808 94.6369 30.893C94.9736 31.193 95.4246 31.3432 95.99 31.3432C96.3628 31.3432 96.6936 31.2831 96.9822 31.1631C97.2829 31.0431 97.5174 30.857 97.6858 30.6049C97.8543 30.3409 97.9384 30.0046 97.9384 29.5966V29.4165H96.6575C96.5251 29.4165 96.411 29.3686 96.3147 29.2725C96.2306 29.1764 96.1884 29.0683 96.1884 28.9484V27.2738C96.1884 27.1417 96.2306 27.0337 96.3147 26.9497C96.411 26.8536 96.5251 26.8057 96.6575 26.8057H101.402C101.535 26.8057 101.649 26.8536 101.745 26.9497C101.841 27.0337 101.889 27.1417 101.889 27.2738V29.4705C101.889 30.5268 101.637 31.4213 101.132 32.1534C100.626 32.8856 99.929 33.4438 99.0389 33.8279C98.1488 34.2121 97.1146 34.4041 95.9359 34.4041ZM104.186 34.2241C104.066 34.2241 103.958 34.182 103.862 34.098C103.765 34.0019 103.717 33.888 103.717 33.7559V22.0882C103.717 21.9561 103.765 21.8481 103.862 21.7641C103.958 21.668 104.066 21.62 104.186 21.62H113.026C113.159 21.62 113.273 21.668 113.369 21.7641C113.465 21.8481 113.514 21.9561 113.514 22.0882V24.2129C113.514 24.3328 113.465 24.4409 113.369 24.537C113.273 24.6331 113.159 24.681 113.026 24.681H107.452V26.4636H112.63C112.762 26.4636 112.876 26.5115 112.972 26.6076C113.069 26.6916 113.117 26.7996 113.117 26.9317V28.8764C113.117 29.0085 113.069 29.1224 112.972 29.2185C112.876 29.3024 112.762 29.3445 112.63 29.3445H107.452V31.1631H113.171C113.303 31.1631 113.417 31.211 113.514 31.3071C113.61 31.4032 113.658 31.5171 113.658 31.6492V33.7559C113.658 33.888 113.61 34.0019 113.514 34.098C113.417 34.182 113.303 34.2241 113.171 34.2241H104.186Z" fill="white" fill-opacity="0.9"/>
</g>
</svg>
